<svg width="502" height="120" viewBox="0 0 502 120" fill="none" xmlns="http://www.w3.org/2000/svg">
<g filter="url(#filter0_d_1227_1158)">
<g filter="url(#filter1_d_1227_1158)">
<rect x="5" y="1" width="492" height="110" rx="55" fill="url(#paint0_linear_1227_1158)"/>
<rect x="4.5" y="0.5" width="493" height="111" rx="55.5" stroke="#FFD96C" stroke-linejoin="round"/>
</g>
<path d="M172.15 30.3636V50H168.622V33.3168H160.031V50H156.503V30.3636H172.15ZM176.405 50V30.3636H183.769C185.277 30.3636 186.543 30.6449 187.566 31.2074C188.595 31.7699 189.371 32.5433 189.895 33.5277C190.426 34.5057 190.691 35.6179 190.691 36.8643C190.691 38.1236 190.426 39.2422 189.895 40.2202C189.365 41.1982 188.582 41.9684 187.546 42.5309C186.511 43.087 185.236 43.3651 183.721 43.3651H178.84V40.4407H183.241C184.123 40.4407 184.846 40.2873 185.408 39.9805C185.971 39.6737 186.386 39.2518 186.655 38.7148C186.93 38.1779 187.067 37.5611 187.067 36.8643C187.067 36.1676 186.93 35.554 186.655 35.0234C186.386 34.4929 185.968 34.0806 185.399 33.7866C184.836 33.4862 184.111 33.3359 183.222 33.3359H179.962V50H176.405ZM193.781 30.3636H197.309V43.7486H197.492L206.725 30.3636H209.918V50H206.361V36.6246H206.198L196.936 50H193.781V30.3636ZM231.34 40.1818C231.34 42.2976 230.944 44.1097 230.151 45.6183C229.365 47.1204 228.291 48.271 226.929 49.07C225.574 49.869 224.037 50.2685 222.318 50.2685C220.598 50.2685 219.058 49.869 217.696 49.07C216.341 48.2646 215.267 47.1108 214.474 45.6087C213.688 44.1001 213.295 42.2912 213.295 40.1818C213.295 38.0661 213.688 36.2571 214.474 34.755C215.267 33.2464 216.341 32.0927 217.696 31.2937C219.058 30.4947 220.598 30.0952 222.318 30.0952C224.037 30.0952 225.574 30.4947 226.929 31.2937C228.291 32.0927 229.365 33.2464 230.151 34.755C230.944 36.2571 231.34 38.0661 231.34 40.1818ZM227.764 40.1818C227.764 38.6925 227.53 37.4364 227.064 36.4137C226.603 35.3846 225.964 34.608 225.146 34.0838C224.328 33.5533 223.385 33.288 222.318 33.288C221.25 33.288 220.307 33.5533 219.489 34.0838C218.671 34.608 218.028 35.3846 217.562 36.4137C217.102 37.4364 216.871 38.6925 216.871 40.1818C216.871 41.6712 217.102 42.9304 217.562 43.9595C218.028 44.9822 218.671 45.7589 219.489 46.2894C220.307 46.8136 221.25 47.0756 222.318 47.0756C223.385 47.0756 224.328 46.8136 225.146 46.2894C225.964 45.7589 226.603 44.9822 227.064 43.9595C227.53 42.9304 227.764 41.6712 227.764 40.1818ZM234.703 50V30.3636H247.33V33.3455H238.26V37.9478H242.047C243.549 37.9478 244.837 38.1939 245.911 38.6861C246.992 39.1719 247.819 39.859 248.395 40.7475C248.97 41.636 249.258 42.6811 249.258 43.8828C249.258 45.0909 248.97 46.1552 248.395 47.0756C247.819 47.9897 246.992 48.7056 245.911 49.2234C244.837 49.7411 243.549 50 242.047 50H234.703ZM238.26 47.0852H242.047C242.84 47.0852 243.511 46.935 244.061 46.6346C244.611 46.3342 245.026 45.9379 245.307 45.4457C245.595 44.9535 245.739 44.4197 245.739 43.8445C245.739 43.0135 245.419 42.3072 244.78 41.7255C244.147 41.1374 243.236 40.8434 242.047 40.8434H238.26V47.0852ZM252.369 50V30.3636H259.733C261.241 30.3636 262.507 30.6449 263.529 31.2074C264.559 31.7699 265.335 32.5433 265.859 33.5277C266.39 34.5057 266.655 35.6179 266.655 36.8643C266.655 38.1236 266.39 39.2422 265.859 40.2202C265.329 41.1982 264.546 41.9684 263.51 42.5309C262.475 43.087 261.2 43.3651 259.685 43.3651H254.804V40.4407H259.205C260.087 40.4407 260.81 40.2873 261.372 39.9805C261.935 39.6737 262.35 39.2518 262.619 38.7148C262.893 38.1779 263.031 37.5611 263.031 36.8643C263.031 36.1676 262.893 35.554 262.619 35.0234C262.35 34.4929 261.931 34.0806 261.363 33.7866C260.8 33.4862 260.075 33.3359 259.186 33.3359H255.926V50H252.369ZM269.745 50V30.3636H282.516V33.3455H273.302V38.6765H281.855V41.6584H273.302V47.0181H282.593V50H269.745ZM302.953 36.989H299.367C299.265 36.4009 299.076 35.88 298.802 35.4261C298.527 34.9659 298.185 34.576 297.776 34.2564C297.367 33.9368 296.9 33.6971 296.376 33.5373C295.858 33.3711 295.299 33.288 294.698 33.288C293.63 33.288 292.684 33.5565 291.86 34.0934C291.035 34.6239 290.39 35.4038 289.923 36.4329C289.456 37.4556 289.223 38.7053 289.223 40.1818C289.223 41.6839 289.456 42.9496 289.923 43.9787C290.396 45.0014 291.042 45.7749 291.86 46.299C292.684 46.8168 293.627 47.0756 294.688 47.0756C295.276 47.0756 295.826 46.9989 296.337 46.8455C296.855 46.6857 297.319 46.4524 297.728 46.1456C298.143 45.8388 298.492 45.4616 298.773 45.0142C299.06 44.5668 299.259 44.0554 299.367 43.4801L302.953 43.4993C302.819 44.4325 302.528 45.3082 302.081 46.1264C301.64 46.9446 301.061 47.6669 300.345 48.2933C299.629 48.9134 298.792 49.3991 297.833 49.7507C296.874 50.0959 295.81 50.2685 294.64 50.2685C292.914 50.2685 291.374 49.869 290.019 49.07C288.664 48.271 287.596 47.1172 286.816 45.6087C286.037 44.1001 285.647 42.2912 285.647 40.1818C285.647 38.0661 286.04 36.2571 286.826 34.755C287.612 33.2464 288.683 32.0927 290.038 31.2937C291.393 30.4947 292.927 30.0952 294.64 30.0952C295.733 30.0952 296.75 30.2486 297.689 30.5554C298.629 30.8622 299.466 31.3129 300.201 31.9073C300.936 32.4954 301.541 33.2177 302.014 34.0742C302.493 34.9244 302.806 35.896 302.953 36.989ZM305.348 33.3455V30.3636H321.015V33.3455H314.945V50H311.417V33.3455H305.348ZM324.035 30.3636H327.563V43.7486H327.746L336.979 30.3636H340.172V50H336.614V36.6246H336.451L327.189 50H324.035V30.3636ZM70.1489 62.3636V82H66.6205V65.3168H58.0296V82H54.5012V62.3636H70.1489ZM91.9498 72.1818C91.9498 74.2976 91.5534 76.1097 90.7608 77.6183C89.9746 79.1204 88.9007 80.271 87.5392 81.07C86.1841 81.869 84.6468 82.2685 82.9274 82.2685C81.2079 82.2685 79.6674 81.869 78.3059 81.07C76.9508 80.2646 75.877 79.1108 75.0843 77.6087C74.2981 76.1001 73.905 74.2912 73.905 72.1818C73.905 70.0661 74.2981 68.2571 75.0843 66.755C75.877 65.2464 76.9508 64.0927 78.3059 63.2937C79.6674 62.4947 81.2079 62.0952 82.9274 62.0952C84.6468 62.0952 86.1841 62.4947 87.5392 63.2937C88.9007 64.0927 89.9746 65.2464 90.7608 66.755C91.5534 68.2571 91.9498 70.0661 91.9498 72.1818ZM88.3734 72.1818C88.3734 70.6925 88.1401 69.4364 87.6735 68.4137C87.2132 67.3846 86.574 66.608 85.7559 66.0838C84.9377 65.5533 83.9949 65.288 82.9274 65.288C81.8599 65.288 80.9171 65.5533 80.0989 66.0838C79.2807 66.608 78.6383 67.3846 78.1717 68.4137C77.7115 69.4364 77.4814 70.6925 77.4814 72.1818C77.4814 73.6712 77.7115 74.9304 78.1717 75.9595C78.6383 76.9822 79.2807 77.7589 80.0989 78.2894C80.9171 78.8136 81.8599 79.0756 82.9274 79.0756C83.9949 79.0756 84.9377 78.8136 85.7559 78.2894C86.574 77.7589 87.2132 76.9822 87.6735 75.9595C88.1401 74.9304 88.3734 73.6712 88.3734 72.1818ZM94.0376 86.7365V79.0948H95.3511C95.7922 78.7433 96.2045 78.2479 96.588 77.6087C96.9715 76.9695 97.2975 76.0937 97.566 74.9815C97.8344 73.8693 98.0198 72.4311 98.1221 70.6669L98.6398 62.3636H111.191V79.0948H113.377V86.7173H109.963V82H97.4509V86.7365H94.0376ZM99.4932 79.0948H107.777V65.3455H101.842L101.535 70.6669C101.452 72.0028 101.318 73.1982 101.133 74.2528C100.947 75.3075 100.714 76.2376 100.433 77.043C100.152 77.842 99.8383 78.5259 99.4932 79.0948ZM118.796 82H114.999L121.912 62.3636H126.304L133.226 82H129.43L124.185 66.3906H124.031L118.796 82ZM118.921 74.3008H129.276V77.158H118.921V74.3008ZM135.813 82V62.3636H143.176C144.685 62.3636 145.951 62.6449 146.973 63.2074C148.002 63.7699 148.779 64.5433 149.303 65.5277C149.834 66.5057 150.099 67.6179 150.099 68.8643C150.099 70.1236 149.834 71.2422 149.303 72.2202C148.773 73.1982 147.99 73.9684 146.954 74.5309C145.919 75.087 144.643 75.3651 143.128 75.3651H138.248V72.4407H142.649C143.531 72.4407 144.253 72.2873 144.816 71.9805C145.378 71.6737 145.794 71.2518 146.062 70.7148C146.337 70.1779 146.475 69.5611 146.475 68.8643C146.475 68.1676 146.337 67.554 146.062 67.0234C145.794 66.4929 145.375 66.0806 144.806 65.7866C144.244 65.4862 143.518 65.3359 142.63 65.3359H139.37V82H135.813ZM170.735 72.1818C170.735 74.2976 170.339 76.1097 169.546 77.6183C168.76 79.1204 167.686 80.271 166.324 81.07C164.969 81.869 163.432 82.2685 161.713 82.2685C159.993 82.2685 158.453 81.869 157.091 81.07C155.736 80.2646 154.662 79.1108 153.869 77.6087C153.083 76.1001 152.69 74.2912 152.69 72.1818C152.69 70.0661 153.083 68.2571 153.869 66.755C154.662 65.2464 155.736 64.0927 157.091 63.2937C158.453 62.4947 159.993 62.0952 161.713 62.0952C163.432 62.0952 164.969 62.4947 166.324 63.2937C167.686 64.0927 168.76 65.2464 169.546 66.755C170.339 68.2571 170.735 70.0661 170.735 72.1818ZM167.159 72.1818C167.159 70.6925 166.925 69.4364 166.459 68.4137C165.998 67.3846 165.359 66.608 164.541 66.0838C163.723 65.5533 162.78 65.288 161.713 65.288C160.645 65.288 159.702 65.5533 158.884 66.0838C158.066 66.608 157.423 67.3846 156.957 68.4137C156.497 69.4364 156.267 70.6925 156.267 72.1818C156.267 73.6712 156.497 74.9304 156.957 75.9595C157.423 76.9822 158.066 77.7589 158.884 78.2894C159.702 78.8136 160.645 79.0756 161.713 79.0756C162.78 79.0756 163.723 78.8136 164.541 78.2894C165.359 77.7589 165.998 76.9822 166.459 75.9595C166.925 74.9304 167.159 73.6712 167.159 72.1818ZM174.683 62.3636H178.163V68.7685C178.163 69.5994 178.307 70.2578 178.595 70.7436C178.889 71.2294 179.323 71.5778 179.899 71.7887C180.474 71.9996 181.19 72.1051 182.046 72.1051C182.43 72.1051 182.842 72.0923 183.283 72.0668C183.731 72.0348 184.181 71.9933 184.635 71.9421C185.089 71.8846 185.524 71.8175 185.939 71.7408C186.355 71.6577 186.725 71.5682 187.051 71.4723V74.3679C186.725 74.4702 186.361 74.5629 185.958 74.646C185.556 74.729 185.131 74.7994 184.683 74.8569C184.236 74.9144 183.788 74.9592 183.341 74.9911C182.893 75.0231 182.462 75.0391 182.046 75.0391C180.544 75.0391 179.24 74.8249 178.134 74.3967C177.035 73.962 176.185 73.2844 175.584 72.364C174.983 71.4435 174.683 70.245 174.683 68.7685V62.3636ZM186.467 62.3636H189.966V82H186.467V62.3636ZM194.295 82V62.3636H197.852V70.6765H206.951V62.3636H210.518V82H206.951V73.6584H197.852V82H194.295ZM216.794 69.9478H221.779C223.282 69.9478 224.57 70.1939 225.643 70.6861C226.724 71.1719 227.551 71.859 228.127 72.7475C228.702 73.636 228.99 74.6811 228.99 75.8828C228.99 77.0909 228.702 78.1552 228.127 79.0756C227.551 79.9897 226.724 80.7056 225.643 81.2234C224.57 81.7411 223.282 82 221.779 82H214.425V62.3636H217.992V79.0852H221.779C222.572 79.0852 223.243 78.935 223.793 78.6346C224.343 78.3342 224.758 77.9379 225.039 77.4457C225.327 76.9535 225.471 76.4197 225.471 75.8445C225.471 75.0135 225.151 74.3072 224.512 73.7255C223.879 73.1374 222.968 72.8434 221.779 72.8434H216.794V69.9478ZM234.253 62.3636V82H230.687V62.3636H234.253ZM238.117 62.3636H241.646V75.7486H241.828L251.061 62.3636H254.254V82H250.697V68.6246H250.534L241.272 82H238.117V62.3636ZM248.089 57.3011H250.687C250.687 58.4197 250.282 59.3274 249.47 60.0241C248.664 60.7145 247.571 61.0597 246.191 61.0597C244.823 61.0597 243.733 60.7145 242.921 60.0241C242.116 59.3274 241.716 58.4197 241.723 57.3011H244.302C244.302 57.7614 244.442 58.1736 244.724 58.538C245.011 58.896 245.5 59.0749 246.191 59.0749C246.868 59.0749 247.351 58.896 247.638 58.538C247.932 58.18 248.083 57.7678 248.089 57.3011ZM281.635 68.989H278.049C277.947 68.4009 277.759 67.88 277.484 67.4261C277.209 66.9659 276.867 66.576 276.458 66.2564C276.049 65.9368 275.582 65.6971 275.058 65.5373C274.54 65.3711 273.981 65.288 273.38 65.288C272.313 65.288 271.366 65.5565 270.542 66.0934C269.717 66.6239 269.072 67.4038 268.605 68.4329C268.138 69.4556 267.905 70.7053 267.905 72.1818C267.905 73.6839 268.138 74.9496 268.605 75.9787C269.078 77.0014 269.724 77.7749 270.542 78.299C271.366 78.8168 272.309 79.0756 273.37 79.0756C273.958 79.0756 274.508 78.9989 275.02 78.8455C275.537 78.6857 276.001 78.4524 276.41 78.1456C276.825 77.8388 277.174 77.4616 277.455 77.0142C277.743 76.5668 277.941 76.0554 278.049 75.4801L281.635 75.4993C281.501 76.4325 281.21 77.3082 280.763 78.1264C280.322 78.9446 279.743 79.6669 279.027 80.2933C278.311 80.9134 277.474 81.3991 276.515 81.7507C275.556 82.0959 274.492 82.2685 273.322 82.2685C271.597 82.2685 270.056 81.869 268.701 81.07C267.346 80.271 266.278 79.1172 265.499 77.6087C264.719 76.1001 264.329 74.2912 264.329 72.1818C264.329 70.0661 264.722 68.2571 265.508 66.755C266.294 65.2464 267.365 64.0927 268.72 63.2937C270.075 62.4947 271.609 62.0952 273.322 62.0952C274.415 62.0952 275.432 62.2486 276.371 62.5554C277.311 62.8622 278.148 63.3129 278.884 63.9073C279.619 64.4954 280.223 65.2177 280.696 66.0742C281.175 66.9244 281.488 67.896 281.635 68.989ZM284.893 82V62.3636H297.664V65.3455H288.45V70.6765H297.003V73.6584H288.45V79.0181H297.741V82H284.893ZM301.293 82V62.3636H308.657C310.165 62.3636 311.431 62.6449 312.454 63.2074C313.483 63.7699 314.26 64.5433 314.784 65.5277C315.314 66.5057 315.579 67.6179 315.579 68.8643C315.579 70.1236 315.314 71.2422 314.784 72.2202C314.253 73.1982 313.47 73.9684 312.435 74.5309C311.399 75.087 310.124 75.3651 308.609 75.3651H303.729V72.4407H308.13C309.012 72.4407 309.734 72.2873 310.296 71.9805C310.859 71.6737 311.274 71.2518 311.543 70.7148C311.818 70.1779 311.955 69.5611 311.955 68.8643C311.955 68.1676 311.818 67.554 311.543 67.0234C311.274 66.4929 310.856 66.0806 310.287 65.7866C309.724 65.4862 308.999 65.3359 308.11 65.3359H304.85V82H301.293ZM317.806 65.3455V62.3636H333.473V65.3455H327.404V82H323.876V65.3455H317.806ZM336.493 62.3636H340.022V75.7486H340.204L349.437 62.3636H352.63V82H349.073V68.6246H348.91L339.648 82H336.493V62.3636ZM363.927 64.5497H367.897C369.431 64.5497 370.792 64.8789 371.981 65.5373C373.17 66.1957 374.103 67.1225 374.781 68.3178C375.459 69.5067 375.797 70.9002 375.797 72.4982C375.797 74.0579 375.459 75.4226 374.781 76.5923C374.103 77.7621 373.17 78.6729 371.981 79.3249C370.792 79.9705 369.431 80.2933 367.897 80.2933H363.927C362.387 80.2933 361.019 79.9737 359.824 79.3345C358.635 78.6889 357.701 77.7812 357.024 76.6115C356.346 75.4418 356.008 74.0739 356.008 72.5078C356.008 70.9098 356.35 69.5163 357.033 68.3274C357.717 67.1321 358.654 66.2053 359.843 65.5469C361.038 64.8821 362.4 64.5497 363.927 64.5497ZM363.927 67.5604C362.994 67.5604 362.185 67.7521 361.502 68.1357C360.824 68.5128 360.3 69.0689 359.929 69.804C359.558 70.5391 359.373 71.4403 359.373 72.5078C359.373 73.5305 359.558 74.3967 359.929 75.1062C360.306 75.8157 360.837 76.3558 361.521 76.7266C362.205 77.0973 363.007 77.2827 363.927 77.2827H367.906C368.833 77.2827 369.632 77.0973 370.303 76.7266C370.981 76.3494 371.502 75.8061 371.866 75.0966C372.237 74.3807 372.422 73.5146 372.422 72.4982C372.422 71.4435 372.237 70.5487 371.866 69.8136C371.502 69.0785 370.981 68.5192 370.303 68.1357C369.632 67.7521 368.833 67.5604 367.906 67.5604H363.927ZM367.628 62.0185V82.8054H364.205V62.0185H367.628ZM379.182 62.3636H382.71V75.7486H382.892L392.126 62.3636H395.319V82H391.761V68.6246H391.598L382.336 82H379.182V62.3636ZM410.959 82L404.497 73.4187H402.752V82H399.195V62.3636H402.752V70.4368H403.643L410.624 62.3636H415.005L407.249 71.3189L415.341 82H410.959ZM420.279 82H416.482L423.395 62.3636H427.786L434.709 82H430.912L425.667 66.3906H425.514L420.279 82ZM420.403 74.3008H430.759V77.158H420.403V74.3008ZM434.059 65.3455V62.3636H449.726V65.3455H443.657V82H440.128V65.3455H434.059Z" fill="#FFFDF0"/>
</g>
<defs>
<filter id="filter0_d_1227_1158" x="0" y="0" width="502" height="120" filterUnits="userSpaceOnUse" color-interpolation-filters="sRGB">
<feFlood flood-opacity="0" result="BackgroundImageFix"/>
<feColorMatrix in="SourceAlpha" type="matrix" values="0 0 0 0 0 0 0 0 0 0 0 0 0 0 0 0 0 0 127 0" result="hardAlpha"/>
<feOffset dy="4"/>
<feGaussianBlur stdDeviation="2"/>
<feComposite in2="hardAlpha" operator="out"/>
<feColorMatrix type="matrix" values="0 0 0 0 0.894231 0 0 0 0 0.406814 0 0 0 0 0.232156 0 0 0 0.61 0"/>
<feBlend mode="normal" in2="BackgroundImageFix" result="effect1_dropShadow_1227_1158"/>
<feBlend mode="normal" in="SourceGraphic" in2="effect1_dropShadow_1227_1158" result="shape"/>
</filter>
<filter id="filter1_d_1227_1158" x="0" y="0" width="502" height="120" filterUnits="userSpaceOnUse" color-interpolation-filters="sRGB">
<feFlood flood-opacity="0" result="BackgroundImageFix"/>
<feColorMatrix in="SourceAlpha" type="matrix" values="0 0 0 0 0 0 0 0 0 0 0 0 0 0 0 0 0 0 127 0" result="hardAlpha"/>
<feOffset dy="4"/>
<feGaussianBlur stdDeviation="2"/>
<feComposite in2="hardAlpha" operator="out"/>
<feColorMatrix type="matrix" values="0 0 0 0 0.894231 0 0 0 0 0.406814 0 0 0 0 0.232156 0 0 0 0.61 0"/>
<feBlend mode="normal" in2="BackgroundImageFix" result="effect1_dropShadow_1227_1158"/>
<feBlend mode="normal" in="SourceGraphic" in2="effect1_dropShadow_1227_1158" result="shape"/>
</filter>
<linearGradient id="paint0_linear_1227_1158" x1="5" y1="56" x2="497" y2="56" gradientUnits="userSpaceOnUse">
<stop offset="0.197115" stop-color="#FF553F"/>
<stop offset="0.471243" stop-color="#F0456D"/>
<stop offset="0.605769" stop-color="#E93E84"/>
</linearGradient>
</defs>
</svg>
