<svg width="410" height="120" viewBox="0 0 410 120" fill="none" xmlns="http://www.w3.org/2000/svg">
<g filter="url(#filter0_d_314_294)">
<g filter="url(#filter1_d_314_294)">
<rect x="5" y="1" width="400" height="110" rx="55" fill="url(#paint0_linear_314_294)"/>
<rect x="4.5" y="0.5" width="401" height="111" rx="55.5" stroke="#FFD96C" stroke-linejoin="round"/>
</g>
<path d="M119.937 50.2685C118.557 50.2685 117.329 50.032 116.255 49.5589C115.188 49.0859 114.344 48.4276 113.724 47.5838C113.104 46.7401 112.775 45.7653 112.737 44.6594H116.342C116.374 45.19 116.549 45.6534 116.869 46.0497C117.189 46.4396 117.614 46.7433 118.144 46.9606C118.675 47.1779 119.269 47.2866 119.928 47.2866C120.631 47.2866 121.254 47.1651 121.797 46.9222C122.341 46.6729 122.766 46.3278 123.073 45.8867C123.379 45.4457 123.53 44.9375 123.523 44.3622C123.53 43.7678 123.376 43.2436 123.063 42.7898C122.75 42.3359 122.296 41.9812 121.701 41.7255C121.113 41.4698 120.404 41.342 119.573 41.342H117.837V38.5998H119.573C120.257 38.5998 120.855 38.4815 121.366 38.245C121.884 38.0085 122.29 37.6761 122.584 37.2479C122.878 36.8132 123.021 36.3114 123.015 35.7425C123.021 35.1864 122.897 34.7038 122.641 34.2947C122.392 33.8793 122.037 33.5565 121.577 33.3263C121.123 33.0962 120.589 32.9812 119.976 32.9812C119.375 32.9812 118.819 33.0898 118.307 33.3072C117.796 33.5245 117.384 33.8345 117.07 34.2372C116.757 34.6335 116.591 35.1065 116.572 35.6562H113.149C113.174 34.5568 113.491 33.5916 114.098 32.7607C114.712 31.9233 115.53 31.2713 116.553 30.8047C117.575 30.3317 118.723 30.0952 119.995 30.0952C121.305 30.0952 122.443 30.3413 123.408 30.8335C124.38 31.3192 125.131 31.9744 125.661 32.799C126.192 33.6236 126.457 34.5344 126.457 35.5316C126.464 36.6374 126.138 37.5643 125.479 38.3121C124.827 39.06 123.971 39.549 122.91 39.7791V39.9325C124.29 40.1243 125.348 40.6357 126.083 41.4666C126.825 42.2912 127.192 43.3171 127.186 44.5444C127.186 45.6438 126.873 46.6282 126.246 47.4975C125.626 48.3604 124.77 49.038 123.677 49.5302C122.59 50.0224 121.344 50.2685 119.937 50.2685ZM133.19 50H129.394L136.307 30.3636H140.698L147.62 50H143.824L138.579 34.3906H138.425L133.19 50ZM133.315 42.3008H143.67V45.158H133.315V42.3008ZM166.228 30.3636V50H162.7V33.3168H154.109V50H150.581V30.3636H166.228ZM170.483 30.3636H174.012V43.7486H174.194L183.427 30.3636H186.62V50H183.063V36.6246H182.9L173.638 50H170.483V30.3636ZM207.304 36.989H203.718C203.616 36.4009 203.427 35.88 203.152 35.4261C202.877 34.9659 202.535 34.576 202.126 34.2564C201.717 33.9368 201.25 33.6971 200.726 33.5373C200.209 33.3711 199.649 33.288 199.048 33.288C197.981 33.288 197.035 33.5565 196.21 34.0934C195.386 34.6239 194.74 35.4038 194.274 36.4329C193.807 37.4556 193.574 38.7053 193.574 40.1818C193.574 41.6839 193.807 42.9496 194.274 43.9787C194.747 45.0014 195.392 45.7749 196.21 46.299C197.035 46.8168 197.978 47.0756 199.039 47.0756C199.627 47.0756 200.177 46.9989 200.688 46.8455C201.206 46.6857 201.669 46.4524 202.078 46.1456C202.494 45.8388 202.842 45.4616 203.123 45.0142C203.411 44.5668 203.609 44.0554 203.718 43.4801L207.304 43.4993C207.17 44.4325 206.879 45.3082 206.431 46.1264C205.99 46.9446 205.412 47.6669 204.696 48.2933C203.98 48.9134 203.143 49.3991 202.184 49.7507C201.225 50.0959 200.161 50.2685 198.991 50.2685C197.265 50.2685 195.725 49.869 194.369 49.07C193.014 48.271 191.947 47.1172 191.167 45.6087C190.387 44.1001 189.997 42.2912 189.997 40.1818C189.997 38.0661 190.39 36.2571 191.177 34.755C191.963 33.2464 193.034 32.0927 194.389 31.2937C195.744 30.4947 197.278 30.0952 198.991 30.0952C200.084 30.0952 201.1 30.2486 202.04 30.5554C202.98 30.8622 203.817 31.3129 204.552 31.9073C205.287 32.4954 205.891 33.2177 206.364 34.0742C206.844 34.9244 207.157 35.896 207.304 36.989ZM212.846 50H209.049L215.962 30.3636H220.353L227.276 50H223.479L218.234 34.3906H218.081L212.846 50ZM212.97 42.3008H223.325V45.158H212.97V42.3008ZM226.626 33.3455V30.3636H242.293V33.3455H236.224V50H232.695V33.3455H226.626ZM247.72 37.9478H252.706C254.208 37.9478 255.496 38.1939 256.57 38.6861C257.65 39.1719 258.478 39.859 259.053 40.7475C259.628 41.636 259.916 42.6811 259.916 43.8828C259.916 45.0909 259.628 46.1552 259.053 47.0756C258.478 47.9897 257.65 48.7056 256.57 49.2234C255.496 49.7411 254.208 50 252.706 50H245.352V30.3636H248.918V47.0852H252.706C253.498 47.0852 254.169 46.935 254.719 46.6346C255.269 46.3342 255.684 45.9379 255.966 45.4457C256.253 44.9535 256.397 44.4197 256.397 43.8445C256.397 43.0135 256.077 42.3072 255.438 41.7255C254.805 41.1374 253.895 40.8434 252.706 40.8434H247.72V37.9478ZM280.183 36.989H276.597C276.494 36.4009 276.306 35.88 276.031 35.4261C275.756 34.9659 275.414 34.576 275.005 34.2564C274.596 33.9368 274.129 33.6971 273.605 33.5373C273.087 33.3711 272.528 33.288 271.927 33.288C270.86 33.288 269.914 33.5565 269.089 34.0934C268.265 34.6239 267.619 35.4038 267.152 36.4329C266.686 37.4556 266.453 38.7053 266.453 40.1818C266.453 41.6839 266.686 42.9496 267.152 43.9787C267.625 45.0014 268.271 45.7749 269.089 46.299C269.914 46.8168 270.857 47.0756 271.918 47.0756C272.506 47.0756 273.056 46.9989 273.567 46.8455C274.085 46.6857 274.548 46.4524 274.957 46.1456C275.373 45.8388 275.721 45.4616 276.002 45.0142C276.29 44.5668 276.488 44.0554 276.597 43.4801L280.183 43.4993C280.048 44.4325 279.758 45.3082 279.31 46.1264C278.869 46.9446 278.291 47.6669 277.575 48.2933C276.859 48.9134 276.021 49.3991 275.063 49.7507C274.104 50.0959 273.04 50.2685 271.87 50.2685C270.144 50.2685 268.603 49.869 267.248 49.07C265.893 48.271 264.826 47.1172 264.046 45.6087C263.266 44.1001 262.876 42.2912 262.876 40.1818C262.876 38.0661 263.269 36.2571 264.056 34.755C264.842 33.2464 265.912 32.0927 267.268 31.2937C268.623 30.4947 270.157 30.0952 271.87 30.0952C272.963 30.0952 273.979 30.2486 274.919 30.5554C275.858 30.8622 276.696 31.3129 277.431 31.9073C278.166 32.4954 278.77 33.2177 279.243 34.0742C279.722 34.9244 280.036 35.896 280.183 36.989ZM297.937 50H294.371V33.3359H291.111C290.229 33.3359 289.503 33.467 288.934 33.729C288.372 33.9847 287.953 34.3619 287.678 34.8604C287.41 35.3526 287.275 35.9471 287.275 36.6438C287.275 37.3406 287.41 37.9286 287.678 38.408C287.947 38.881 288.362 39.2422 288.925 39.4915C289.493 39.7344 290.216 39.8558 291.091 39.8558H295.866V42.8089H290.612C289.104 42.8089 287.832 42.5597 286.796 42.0611C285.761 41.5561 284.974 40.8434 284.437 39.9229C283.907 38.9961 283.642 37.9031 283.642 36.6438C283.642 35.391 283.904 34.2947 284.428 33.3551C284.958 32.4091 285.738 31.674 286.767 31.1499C287.796 30.6257 289.062 30.3636 290.564 30.3636H297.937V50ZM287.784 41.1023H291.667L286.892 50H282.922L287.784 41.1023ZM124.617 82V62.3636H128.175V70.6765H137.274V62.3636H140.84V82H137.274V73.6584H128.175V82H124.617ZM147.231 82H143.434L150.347 62.3636H154.738L161.661 82H157.864L152.619 66.3906H152.466L147.231 82ZM147.356 74.3008H157.711V77.158H147.356V74.3008ZM187.752 68.989H184.167C184.064 68.4009 183.876 67.88 183.601 67.4261C183.326 66.9659 182.984 66.576 182.575 66.2564C182.166 65.9368 181.699 65.6971 181.175 65.5373C180.657 65.3711 180.098 65.288 179.497 65.288C178.43 65.288 177.484 65.5565 176.659 66.0934C175.835 66.6239 175.189 67.4038 174.722 68.4329C174.256 69.4556 174.022 70.7053 174.022 72.1818C174.022 73.6839 174.256 74.9496 174.722 75.9787C175.195 77.0014 175.841 77.7749 176.659 78.299C177.484 78.8168 178.426 79.0756 179.488 79.0756C180.076 79.0756 180.625 78.9989 181.137 78.8455C181.654 78.6857 182.118 78.4524 182.527 78.1456C182.942 77.8388 183.291 77.4616 183.572 77.0142C183.86 76.5668 184.058 76.0554 184.167 75.4801L187.752 75.4993C187.618 76.4325 187.327 77.3082 186.88 78.1264C186.439 78.9446 185.86 79.6669 185.145 80.2933C184.429 80.9134 183.591 81.3991 182.632 81.7507C181.674 82.0959 180.609 82.2685 179.44 82.2685C177.714 82.2685 176.173 81.869 174.818 81.07C173.463 80.271 172.396 79.1172 171.616 77.6087C170.836 76.1001 170.446 74.2912 170.446 72.1818C170.446 70.0661 170.839 68.2571 171.625 66.755C172.412 65.2464 173.482 64.0927 174.837 63.2937C176.192 62.4947 177.727 62.0952 179.44 62.0952C180.533 62.0952 181.549 62.2486 182.489 62.5554C183.428 62.8622 184.266 63.3129 185.001 63.9073C185.736 64.4954 186.34 65.2177 186.813 66.0742C187.292 66.9244 187.605 67.896 187.752 68.989ZM190.147 65.2209V62.3636H196.782V65.2209H190.147ZM197.798 69.9478H202.784C204.293 69.9478 205.584 70.1939 206.658 70.6861C207.738 71.1719 208.566 71.859 209.141 72.7475C209.716 73.636 210.001 74.6811 209.994 75.8828C210.001 77.0909 209.716 78.1552 209.141 79.0756C208.566 79.9897 207.738 80.7056 206.658 81.2234C205.584 81.7411 204.293 82 202.784 82H195.44V62.3636H198.997V79.0852H202.784C203.583 79.0852 204.258 78.935 204.807 78.6346C205.357 78.3342 205.772 77.9379 206.054 77.4457C206.341 76.9535 206.482 76.4197 206.476 75.8445C206.482 75.0135 206.166 74.3072 205.526 73.7255C204.894 73.1374 203.979 72.8434 202.784 72.8434H197.798V69.9478ZM213.132 82V62.3636H225.903V65.3455H216.689V70.6765H225.242V73.6584H216.689V79.0181H225.98V82H213.132ZM216.661 60.1967C216.156 60.1967 215.718 60.0178 215.347 59.6598C214.983 59.3018 214.8 58.88 214.8 58.3942C214.8 57.8828 214.983 57.4545 215.347 57.1094C215.718 56.7578 216.156 56.582 216.661 56.582C217.178 56.582 217.613 56.7578 217.964 57.1094C218.322 57.4545 218.501 57.8828 218.501 58.3942C218.501 58.88 218.322 59.3018 217.964 59.6598C217.613 60.0178 217.178 60.1967 216.661 60.1967ZM222.413 60.1967C221.908 60.1967 221.471 60.0178 221.1 59.6598C220.735 59.3018 220.553 58.88 220.553 58.3942C220.553 57.8828 220.735 57.4545 221.1 57.1094C221.471 56.7578 221.908 56.582 222.413 56.582C222.931 56.582 223.366 56.7578 223.717 57.1094C224.075 57.4545 224.254 57.8828 224.254 58.3942C224.254 58.88 224.075 59.3018 223.717 59.6598C223.366 60.0178 222.931 60.1967 222.413 60.1967ZM229.532 62.3636H233.885L239.715 76.5923H239.945L245.775 62.3636H250.128V82H246.714V68.5096H246.532L241.105 81.9425H238.555L233.128 68.4808H232.946V82H229.532V62.3636ZM265.766 82L259.303 73.4187H257.558V82H254.001V62.3636H257.558V70.4368H258.45L265.43 62.3636H269.812L262.055 71.3189L270.148 82H265.766ZM274.318 82.2685V79.277H275.44C275.945 79.277 276.361 79.2035 276.687 79.0565C277.013 78.9094 277.275 78.6985 277.473 78.4237C277.677 78.1488 277.847 77.8292 277.981 77.4648L278.24 76.8033L271.221 62.3636H274.942L279.831 72.8722L284.06 62.3636H287.722L280.953 78.3757C280.64 79.0661 280.279 79.7085 279.87 80.3029C279.461 80.891 278.927 81.3672 278.269 81.7315C277.617 82.0895 276.767 82.2685 275.718 82.2685H274.318Z" fill="#FFFDF0"/>
</g>
<defs>
<filter id="filter0_d_314_294" x="0" y="0" width="410" height="120" filterUnits="userSpaceOnUse" color-interpolation-filters="sRGB">
<feFlood flood-opacity="0" result="BackgroundImageFix"/>
<feColorMatrix in="SourceAlpha" type="matrix" values="0 0 0 0 0 0 0 0 0 0 0 0 0 0 0 0 0 0 127 0" result="hardAlpha"/>
<feOffset dy="4"/>
<feGaussianBlur stdDeviation="2"/>
<feComposite in2="hardAlpha" operator="out"/>
<feColorMatrix type="matrix" values="0 0 0 0 0.894231 0 0 0 0 0.406814 0 0 0 0 0.232156 0 0 0 0.61 0"/>
<feBlend mode="normal" in2="BackgroundImageFix" result="effect1_dropShadow_314_294"/>
<feBlend mode="normal" in="SourceGraphic" in2="effect1_dropShadow_314_294" result="shape"/>
</filter>
<filter id="filter1_d_314_294" x="0" y="0" width="410" height="120" filterUnits="userSpaceOnUse" color-interpolation-filters="sRGB">
<feFlood flood-opacity="0" result="BackgroundImageFix"/>
<feColorMatrix in="SourceAlpha" type="matrix" values="0 0 0 0 0 0 0 0 0 0 0 0 0 0 0 0 0 0 127 0" result="hardAlpha"/>
<feOffset dy="4"/>
<feGaussianBlur stdDeviation="2"/>
<feComposite in2="hardAlpha" operator="out"/>
<feColorMatrix type="matrix" values="0 0 0 0 0.894231 0 0 0 0 0.406814 0 0 0 0 0.232156 0 0 0 0.61 0"/>
<feBlend mode="normal" in2="BackgroundImageFix" result="effect1_dropShadow_314_294"/>
<feBlend mode="normal" in="SourceGraphic" in2="effect1_dropShadow_314_294" result="shape"/>
</filter>
<linearGradient id="paint0_linear_314_294" x1="5" y1="56" x2="405" y2="56" gradientUnits="userSpaceOnUse">
<stop offset="0.197115" stop-color="#FF553F"/>
<stop offset="0.471243" stop-color="#F0456D"/>
<stop offset="0.605769" stop-color="#E93E84"/>
</linearGradient>
</defs>
</svg>
