<svg width="375" height="78" viewBox="0 0 375 78" fill="none" xmlns="http://www.w3.org/2000/svg">
<g filter="url(#filter0_d_1227_1296)">
<g filter="url(#filter1_d_1227_1296)">
<rect x="5" y="1" width="365" height="68" rx="34" fill="url(#paint0_linear_1227_1296)"/>
<rect x="4.5" y="0.5" width="366" height="69" rx="34.5" stroke="#FFD96C" stroke-linejoin="round"/>
</g>
<path d="M128.722 14.4545V29H126.109V16.642H119.745V29H117.132V14.4545H128.722ZM131.874 29V14.4545H137.329C138.446 14.4545 139.384 14.6629 140.141 15.0795C140.903 15.4962 141.479 16.0691 141.867 16.7983C142.26 17.5227 142.456 18.3466 142.456 19.2699C142.456 20.2027 142.26 21.0312 141.867 21.7557C141.474 22.4801 140.894 23.0507 140.127 23.4673C139.36 23.8793 138.415 24.0852 137.293 24.0852H133.678V21.919H136.938C137.591 21.919 138.126 21.8054 138.543 21.5781C138.96 21.3509 139.268 21.0384 139.466 20.6406C139.67 20.2429 139.772 19.786 139.772 19.2699C139.772 18.7538 139.67 18.2992 139.466 17.9062C139.268 17.5133 138.957 17.2079 138.536 16.9901C138.119 16.7675 137.582 16.6562 136.924 16.6562H134.509V29H131.874ZM144.745 14.4545H147.359V24.3693H147.494L154.333 14.4545H156.698V29H154.063V19.0923H153.943L147.082 29H144.745V14.4545ZM172.567 21.7273C172.567 23.2945 172.273 24.6368 171.686 25.7543C171.104 26.867 170.308 27.7192 169.3 28.3111C168.296 28.9029 167.157 29.1989 165.883 29.1989C164.61 29.1989 163.469 28.9029 162.46 28.3111C161.456 27.7145 160.661 26.8598 160.074 25.7472C159.491 24.6297 159.2 23.2898 159.2 21.7273C159.2 20.16 159.491 18.8201 160.074 17.7074C160.661 16.59 161.456 15.7353 162.46 15.1435C163.469 14.5516 164.61 14.2557 165.883 14.2557C167.157 14.2557 168.296 14.5516 169.3 15.1435C170.308 15.7353 171.104 16.59 171.686 17.7074C172.273 18.8201 172.567 20.16 172.567 21.7273ZM169.917 21.7273C169.917 20.6241 169.745 19.6937 169.399 18.9361C169.058 18.1738 168.585 17.5985 167.979 17.2102C167.372 16.8172 166.674 16.6207 165.883 16.6207C165.093 16.6207 164.394 16.8172 163.788 17.2102C163.182 17.5985 162.706 18.1738 162.361 18.9361C162.02 19.6937 161.849 20.6241 161.849 21.7273C161.849 22.8305 162.02 23.7633 162.361 24.5256C162.706 25.2831 163.182 25.8584 163.788 26.2514C164.394 26.6397 165.093 26.8338 165.883 26.8338C166.674 26.8338 167.372 26.6397 167.979 26.2514C168.585 25.8584 169.058 25.2831 169.399 24.5256C169.745 23.7633 169.917 22.8305 169.917 21.7273ZM175.058 29V14.4545H184.411V16.6634H177.693V20.0724H180.498C181.611 20.0724 182.565 20.2547 183.36 20.6193C184.16 20.9792 184.774 21.4882 185.2 22.1463C185.626 22.8045 185.839 23.5786 185.839 24.4688C185.839 25.3636 185.626 26.152 185.2 26.8338C184.774 27.5109 184.16 28.0412 183.36 28.4247C182.565 28.8082 181.611 29 180.498 29H175.058ZM177.693 26.8409H180.498C181.085 26.8409 181.582 26.7296 181.99 26.5071C182.397 26.2846 182.704 25.991 182.913 25.6264C183.126 25.2618 183.232 24.8665 183.232 24.4403C183.232 23.8248 182.996 23.3016 182.522 22.8707C182.053 22.4351 181.379 22.2173 180.498 22.2173H177.693V26.8409ZM188.144 29V14.4545H193.598C194.716 14.4545 195.653 14.6629 196.411 15.0795C197.173 15.4962 197.748 16.0691 198.137 16.7983C198.53 17.5227 198.726 18.3466 198.726 19.2699C198.726 20.2027 198.53 21.0312 198.137 21.7557C197.744 22.4801 197.164 23.0507 196.396 23.4673C195.629 23.8793 194.685 24.0852 193.563 24.0852H189.948V21.919H193.208C193.861 21.919 194.396 21.8054 194.813 21.5781C195.229 21.3509 195.537 21.0384 195.736 20.6406C195.94 20.2429 196.041 19.786 196.041 19.2699C196.041 18.7538 195.94 18.2992 195.736 17.9062C195.537 17.5133 195.227 17.2079 194.806 16.9901C194.389 16.7675 193.852 16.6562 193.193 16.6562H190.779V29H188.144ZM201.015 29V14.4545H210.475V16.6634H203.65V20.6122H209.985V22.821H203.65V26.7912H210.532V29H201.015ZM225.613 19.3622H222.957C222.881 18.9266 222.742 18.5407 222.538 18.2045C222.335 17.8636 222.081 17.5748 221.778 17.3381C221.475 17.1013 221.13 16.9238 220.741 16.8054C220.358 16.6823 219.943 16.6207 219.498 16.6207C218.708 16.6207 218.007 16.8196 217.396 17.2173C216.785 17.6103 216.307 18.188 215.961 18.9503C215.616 19.7079 215.443 20.6335 215.443 21.7273C215.443 22.84 215.616 23.7775 215.961 24.5398C216.312 25.2973 216.79 25.8703 217.396 26.2585C218.007 26.642 218.705 26.8338 219.491 26.8338C219.927 26.8338 220.334 26.777 220.713 26.6634C221.096 26.545 221.44 26.3722 221.743 26.1449C222.05 25.9176 222.309 25.6383 222.517 25.3068C222.73 24.9754 222.877 24.5966 222.957 24.1705L225.613 24.1847C225.514 24.8759 225.299 25.5246 224.967 26.1307C224.64 26.7367 224.212 27.2718 223.682 27.7358C223.151 28.1951 222.531 28.5549 221.821 28.8153C221.111 29.071 220.322 29.1989 219.456 29.1989C218.177 29.1989 217.036 28.9029 216.032 28.3111C215.029 27.7192 214.238 26.8646 213.66 25.7472C213.083 24.6297 212.794 23.2898 212.794 21.7273C212.794 20.16 213.085 18.8201 213.667 17.7074C214.25 16.59 215.043 15.7353 216.047 15.1435C217.05 14.5516 218.187 14.2557 219.456 14.2557C220.265 14.2557 221.018 14.3693 221.714 14.5966C222.41 14.8239 223.031 15.1577 223.575 15.598C224.12 16.0336 224.567 16.5687 224.917 17.2031C225.273 17.8329 225.505 18.5526 225.613 19.3622ZM227.387 16.6634V14.4545H238.992V16.6634H234.497V29H231.883V16.6634H227.387ZM241.23 14.4545H243.843V24.3693H243.978L250.818 14.4545H253.183V29H250.548V19.0923H250.427L243.566 29H241.23V14.4545ZM53.1658 40.4545V55H50.5522V42.642H44.1886V55H41.5749V40.4545H53.1658ZM69.3146 47.7273C69.3146 49.2945 69.0211 50.6368 68.4339 51.7543C67.8516 52.867 67.0561 53.7192 66.0476 54.3111C65.0438 54.9029 63.9051 55.1989 62.6314 55.1989C61.3577 55.1989 60.2166 54.9029 59.2081 54.3111C58.2043 53.7145 57.4089 52.8598 56.8217 51.7472C56.2393 50.6297 55.9482 49.2898 55.9482 47.7273C55.9482 46.16 56.2393 44.8201 56.8217 43.7074C57.4089 42.59 58.2043 41.7353 59.2081 41.1435C60.2166 40.5516 61.3577 40.2557 62.6314 40.2557C63.9051 40.2557 65.0438 40.5516 66.0476 41.1435C67.0561 41.7353 67.8516 42.59 68.4339 43.7074C69.0211 44.8201 69.3146 46.16 69.3146 47.7273ZM66.6655 47.7273C66.6655 46.6241 66.4927 45.6937 66.147 44.9361C65.8061 44.1738 65.3326 43.5985 64.7266 43.2102C64.1205 42.8172 63.4221 42.6207 62.6314 42.6207C61.8407 42.6207 61.1423 42.8172 60.5362 43.2102C59.9302 43.5985 59.4543 44.1738 59.1087 44.9361C58.7678 45.6937 58.5973 46.6241 58.5973 47.7273C58.5973 48.8305 58.7678 49.7633 59.1087 50.5256C59.4543 51.2831 59.9302 51.8584 60.5362 52.2514C61.1423 52.6397 61.8407 52.8338 62.6314 52.8338C63.4221 52.8338 64.1205 52.6397 64.7266 52.2514C65.3326 51.8584 65.8061 51.2831 66.147 50.5256C66.4927 49.7633 66.6655 48.8305 66.6655 47.7273ZM70.8612 58.5085V52.848H71.8342C72.1609 52.5876 72.4663 52.2206 72.7504 51.7472C73.0344 51.2737 73.2759 50.625 73.4748 49.8011C73.6737 48.9773 73.811 47.9119 73.8867 46.6051L74.2702 40.4545H83.5671V52.848H85.1864V58.4943H82.658V55H73.3896V58.5085H70.8612ZM74.9023 52.848H81.0387V42.6634H76.6424L76.4151 46.6051C76.3536 47.5947 76.2541 48.4801 76.1168 49.2614C75.9795 50.0426 75.8067 50.7315 75.5984 51.3281C75.39 51.92 75.158 52.4266 74.9023 52.848ZM89.201 55H86.3885L91.5092 40.4545H94.7621L99.8899 55H97.0774L93.1925 43.4375H93.0788L89.201 55ZM89.2933 49.2969H96.9638V51.4134H89.2933V49.2969ZM101.806 55V40.4545H107.26C108.378 40.4545 109.315 40.6629 110.073 41.0795C110.835 41.4962 111.41 42.0691 111.799 42.7983C112.192 43.5227 112.388 44.3466 112.388 45.2699C112.388 46.2027 112.192 47.0312 111.799 47.7557C111.406 48.4801 110.826 49.0507 110.059 49.4673C109.292 49.8793 108.347 50.0852 107.225 50.0852H103.61V47.919H106.87C107.523 47.919 108.058 47.8054 108.475 47.5781C108.891 47.3509 109.199 47.0384 109.398 46.6406C109.602 46.2429 109.703 45.786 109.703 45.2699C109.703 44.7538 109.602 44.2992 109.398 43.9062C109.199 43.5133 108.889 43.2079 108.468 42.9901C108.051 42.7675 107.514 42.6562 106.855 42.6562H104.441V55H101.806ZM127.674 47.7273C127.674 49.2945 127.38 50.6368 126.793 51.7543C126.211 52.867 125.415 53.7192 124.407 54.3111C123.403 54.9029 122.264 55.1989 120.991 55.1989C119.717 55.1989 118.576 54.9029 117.567 54.3111C116.564 53.7145 115.768 52.8598 115.181 51.7472C114.599 50.6297 114.308 49.2898 114.308 47.7273C114.308 46.16 114.599 44.8201 115.181 43.7074C115.768 42.59 116.564 41.7353 117.567 41.1435C118.576 40.5516 119.717 40.2557 120.991 40.2557C122.264 40.2557 123.403 40.5516 124.407 41.1435C125.415 41.7353 126.211 42.59 126.793 43.7074C127.38 44.8201 127.674 46.16 127.674 47.7273ZM125.025 47.7273C125.025 46.6241 124.852 45.6937 124.506 44.9361C124.165 44.1738 123.692 43.5985 123.086 43.2102C122.48 42.8172 121.781 42.6207 120.991 42.6207C120.2 42.6207 119.502 42.8172 118.896 43.2102C118.29 43.5985 117.814 44.1738 117.468 44.9361C117.127 45.6937 116.957 46.6241 116.957 47.7273C116.957 48.8305 117.127 49.7633 117.468 50.5256C117.814 51.2831 118.29 51.8584 118.896 52.2514C119.502 52.6397 120.2 52.8338 120.991 52.8338C121.781 52.8338 122.48 52.6397 123.086 52.2514C123.692 51.8584 124.165 51.2831 124.506 50.5256C124.852 49.7633 125.025 48.8305 125.025 47.7273ZM130.598 40.4545H133.176V45.1989C133.176 45.8144 133.283 46.3021 133.496 46.6619C133.714 47.0218 134.036 47.2798 134.462 47.4361C134.888 47.5923 135.418 47.6705 136.053 47.6705C136.337 47.6705 136.642 47.661 136.969 47.642C137.301 47.6184 137.634 47.5876 137.971 47.5497C138.307 47.5071 138.629 47.4574 138.936 47.4006C139.244 47.339 139.519 47.2727 139.76 47.2017V49.3466C139.519 49.4223 139.249 49.491 138.951 49.5526C138.652 49.6141 138.337 49.6662 138.006 49.7088C137.675 49.7514 137.343 49.7846 137.012 49.8082C136.68 49.8319 136.361 49.8438 136.053 49.8438C134.94 49.8438 133.974 49.6851 133.155 49.3679C132.341 49.0459 131.711 48.544 131.266 47.8622C130.821 47.1804 130.598 46.2926 130.598 45.1989V40.4545ZM139.327 40.4545H141.919V55H139.327V40.4545ZM145.126 55V40.4545H147.761V46.6122H154.501V40.4545H157.143V55H154.501V48.821H147.761V55H145.126ZM161.792 46.0724H165.485C166.597 46.0724 167.551 46.2547 168.347 46.6193C169.147 46.9792 169.76 47.4882 170.186 48.1463C170.613 48.8045 170.826 49.5786 170.826 50.4688C170.826 51.3636 170.613 52.152 170.186 52.8338C169.76 53.5109 169.147 54.0412 168.347 54.4247C167.551 54.8082 166.597 55 165.485 55H160.037V40.4545H162.679V52.8409H165.485C166.072 52.8409 166.569 52.7296 166.976 52.5071C167.383 52.2846 167.691 51.991 167.9 51.6264C168.113 51.2618 168.219 50.8665 168.219 50.4403C168.219 49.8248 167.982 49.3016 167.509 48.8707C167.04 48.4351 166.365 48.2173 165.485 48.2173H161.792V46.0724ZM174.725 40.4545V55H172.083V40.4545H174.725ZM177.587 40.4545H180.201V50.3693H180.336L187.175 40.4545H189.54V55H186.905V45.0923H186.784L179.924 55H177.587V40.4545ZM184.973 36.7045H186.898C186.898 37.5331 186.597 38.2055 185.996 38.7216C185.4 39.233 184.59 39.4886 183.567 39.4886C182.554 39.4886 181.747 39.233 181.145 38.7216C180.549 38.2055 180.253 37.5331 180.257 36.7045H182.168C182.168 37.0455 182.272 37.3509 182.48 37.6207C182.694 37.8859 183.056 38.0185 183.567 38.0185C184.069 38.0185 184.426 37.8859 184.64 37.6207C184.857 37.3556 184.969 37.0502 184.973 36.7045ZM209.822 45.3622H207.166C207.09 44.9266 206.951 44.5407 206.747 44.2045C206.544 43.8636 206.29 43.5748 205.987 43.3381C205.684 43.1013 205.339 42.9238 204.95 42.8054C204.567 42.6823 204.152 42.6207 203.707 42.6207C202.917 42.6207 202.216 42.8196 201.605 43.2173C200.994 43.6103 200.516 44.188 200.17 44.9503C199.825 45.7079 199.652 46.6335 199.652 47.7273C199.652 48.84 199.825 49.7775 200.17 50.5398C200.521 51.2973 200.999 51.8703 201.605 52.2585C202.216 52.642 202.914 52.8338 203.7 52.8338C204.136 52.8338 204.543 52.777 204.922 52.6634C205.305 52.545 205.649 52.3722 205.952 52.1449C206.259 51.9176 206.518 51.6383 206.726 51.3068C206.939 50.9754 207.086 50.5966 207.166 50.1705L209.822 50.1847C209.723 50.8759 209.508 51.5246 209.176 52.1307C208.849 52.7367 208.421 53.2718 207.891 53.7358C207.36 54.1951 206.74 54.5549 206.03 54.8153C205.32 55.071 204.531 55.1989 203.665 55.1989C202.386 55.1989 201.245 54.9029 200.241 54.3111C199.238 53.7192 198.447 52.8646 197.869 51.7472C197.292 50.6297 197.003 49.2898 197.003 47.7273C197.003 46.16 197.294 44.8201 197.876 43.7074C198.459 42.59 199.252 41.7353 200.256 41.1435C201.259 40.5516 202.396 40.2557 203.665 40.2557C204.474 40.2557 205.227 40.3693 205.923 40.5966C206.619 40.8239 207.24 41.1577 207.784 41.598C208.329 42.0336 208.776 42.5687 209.126 43.2031C209.482 43.8329 209.714 44.5526 209.822 45.3622ZM212.235 55V40.4545H221.696V42.6634H214.87V46.6122H221.206V48.821H214.87V52.7912H221.752V55H212.235ZM224.384 55V40.4545H229.838C230.956 40.4545 231.893 40.6629 232.651 41.0795C233.413 41.4962 233.989 42.0691 234.377 42.7983C234.77 43.5227 234.966 44.3466 234.966 45.2699C234.966 46.2027 234.77 47.0312 234.377 47.7557C233.984 48.4801 233.404 49.0507 232.637 49.4673C231.87 49.8793 230.925 50.0852 229.803 50.0852H226.188V47.919H229.448C230.101 47.919 230.636 47.8054 231.053 47.5781C231.47 47.3509 231.777 47.0384 231.976 46.6406C232.18 46.2429 232.282 45.786 232.282 45.2699C232.282 44.7538 232.18 44.2992 231.976 43.9062C231.777 43.5133 231.467 43.2079 231.046 42.9901C230.629 42.7675 230.092 42.6562 229.434 42.6562H227.019V55H224.384ZM236.616 42.6634V40.4545H248.221V42.6634H243.725V55H241.112V42.6634H236.616ZM250.458 40.4545H253.072V50.3693H253.207L260.046 40.4545H262.411V55H259.776V45.0923H259.656L252.795 55H250.458V40.4545ZM270.779 42.0739H273.72C274.856 42.0739 275.865 42.3177 276.745 42.8054C277.626 43.2931 278.317 43.9796 278.819 44.8651C279.321 45.7457 279.572 46.7779 279.572 47.9616C279.572 49.117 279.321 50.1278 278.819 50.9943C278.317 51.8608 277.626 52.5355 276.745 53.0185C275.865 53.4967 274.856 53.7358 273.72 53.7358H270.779C269.638 53.7358 268.625 53.4991 267.74 53.0256C266.859 52.5473 266.168 51.875 265.666 51.0085C265.164 50.142 264.913 49.1288 264.913 47.9688C264.913 46.785 265.166 45.7528 265.673 44.8722C266.18 43.9867 266.873 43.3002 267.754 42.8125C268.639 42.3201 269.648 42.0739 270.779 42.0739ZM270.779 44.304C270.088 44.304 269.489 44.446 268.983 44.7301C268.481 45.0095 268.092 45.4214 267.818 45.9659C267.543 46.5104 267.406 47.178 267.406 47.9688C267.406 48.7263 267.543 49.3679 267.818 49.8935C268.097 50.419 268.49 50.8191 268.997 51.0938C269.503 51.3684 270.098 51.5057 270.779 51.5057H273.727C274.413 51.5057 275.005 51.3684 275.502 51.0938C276.004 50.8144 276.39 50.4119 276.66 49.8864C276.935 49.3561 277.072 48.7145 277.072 47.9616C277.072 47.1804 276.935 46.5175 276.66 45.973C276.39 45.4285 276.004 45.0142 275.502 44.7301C275.005 44.446 274.413 44.304 273.727 44.304H270.779ZM273.521 40.1989V55.5966H270.985V40.1989H273.521ZM282.079 40.4545H284.693V50.3693H284.828L291.667 40.4545H294.032V55H291.397V45.0923H291.277L284.416 55H282.079V40.4545ZM305.618 55L300.831 48.6435H299.538V55H296.903V40.4545H299.538V46.4347H300.199L305.369 40.4545H308.615L302.869 47.0881L308.864 55H305.618ZM312.521 55H309.709L314.83 40.4545H318.082L323.21 55H320.398L316.513 43.4375H316.399L312.521 55ZM312.614 49.2969H320.284V51.4134H312.614V49.2969ZM322.729 42.6634V40.4545H334.334V42.6634H329.838V55H327.225V42.6634H322.729Z" fill="#FFFDF0"/>
</g>
<defs>
<filter id="filter0_d_1227_1296" x="0" y="0" width="375" height="78" filterUnits="userSpaceOnUse" color-interpolation-filters="sRGB">
<feFlood flood-opacity="0" result="BackgroundImageFix"/>
<feColorMatrix in="SourceAlpha" type="matrix" values="0 0 0 0 0 0 0 0 0 0 0 0 0 0 0 0 0 0 127 0" result="hardAlpha"/>
<feOffset dy="4"/>
<feGaussianBlur stdDeviation="2"/>
<feComposite in2="hardAlpha" operator="out"/>
<feColorMatrix type="matrix" values="0 0 0 0 0.894231 0 0 0 0 0.406814 0 0 0 0 0.232156 0 0 0 0.61 0"/>
<feBlend mode="normal" in2="BackgroundImageFix" result="effect1_dropShadow_1227_1296"/>
<feBlend mode="normal" in="SourceGraphic" in2="effect1_dropShadow_1227_1296" result="shape"/>
</filter>
<filter id="filter1_d_1227_1296" x="0" y="0" width="375" height="78" filterUnits="userSpaceOnUse" color-interpolation-filters="sRGB">
<feFlood flood-opacity="0" result="BackgroundImageFix"/>
<feColorMatrix in="SourceAlpha" type="matrix" values="0 0 0 0 0 0 0 0 0 0 0 0 0 0 0 0 0 0 127 0" result="hardAlpha"/>
<feOffset dy="4"/>
<feGaussianBlur stdDeviation="2"/>
<feComposite in2="hardAlpha" operator="out"/>
<feColorMatrix type="matrix" values="0 0 0 0 0.894231 0 0 0 0 0.406814 0 0 0 0 0.232156 0 0 0 0.61 0"/>
<feBlend mode="normal" in2="BackgroundImageFix" result="effect1_dropShadow_1227_1296"/>
<feBlend mode="normal" in="SourceGraphic" in2="effect1_dropShadow_1227_1296" result="shape"/>
</filter>
<linearGradient id="paint0_linear_1227_1296" x1="5" y1="35" x2="370" y2="35" gradientUnits="userSpaceOnUse">
<stop offset="0.197115" stop-color="#FF553F"/>
<stop offset="0.471243" stop-color="#F0456D"/>
<stop offset="0.605769" stop-color="#E93E84"/>
</linearGradient>
</defs>
</svg>
